<svg width="64" height="64" viewBox="0 0 64 64" fill="none" xmlns="http://www.w3.org/2000/svg">
<path d="M32 56C45.2548 56 56 45.2548 56 32C56 18.7452 45.2548 8 32 8C18.7452 8 8 18.7452 8 32C8 45.2548 18.7452 56 32 56Z" stroke="#861BE3" stroke-width="2.93333" stroke-linecap="round" stroke-linejoin="round"/>
<path fill-rule="evenodd" clip-rule="evenodd" d="M31.7151 17.5349C32.5242 17.5349 33.1801 18.1908 33.1801 18.9999V22.0202H35.3034H36.7684H44.0894C46.4868 22.0202 48.4303 23.9637 48.4303 26.3611V40.3449C48.4303 42.7423 46.4868 44.6857 44.0894 44.6857H19.3408C16.9435 44.6857 15 42.7423 15 40.3449V26.3611C15 23.9637 16.9435 22.0202 19.3408 22.0202H26.6619H28.1269H30.2501V18.9999C30.2501 18.1908 30.906 17.5349 31.7151 17.5349ZM31.7151 24.9502H33.8384V25.602C33.8384 26.101 33.4338 26.5056 32.9348 26.5056H30.4955C29.9964 26.5056 29.5919 26.101 29.5919 25.6019V24.9502H31.7151ZM26.6619 25.6019V24.9502H19.3408C18.5616 24.9502 17.93 25.5819 17.93 26.3611V40.3449C17.93 41.1241 18.5617 41.7557 19.3408 41.7557H44.0894C44.8686 41.7557 45.5003 41.1241 45.5003 40.3449V26.3611C45.5003 25.5819 44.8686 24.9502 44.0894 24.9502H36.7684V25.602C36.7684 27.7192 35.052 29.4356 32.9348 29.4356H30.4955C28.3782 29.4356 26.6619 27.7192 26.6619 25.6019ZM27.6247 34.5795C27.6247 35.3886 26.9688 36.0445 26.1597 36.0445H25.0448V37.1596C25.0448 37.9687 24.3889 38.6246 23.5798 38.6246C22.7707 38.6246 22.1148 37.9687 22.1148 37.1596V36.0445H21C20.1909 36.0445 19.535 35.3886 19.535 34.5795C19.535 33.7704 20.1909 33.1145 21 33.1145H22.1148V32C22.1148 31.1909 22.7707 30.535 23.5798 30.535C24.3889 30.535 25.0448 31.1909 25.0448 32V33.1145H26.1597C26.9688 33.1145 27.6247 33.7704 27.6247 34.5795ZM33 35.8414C33.8091 35.8414 34.465 35.1855 34.465 34.3764C34.465 33.5673 33.8091 32.9114 33 32.9114H31C30.1909 32.9114 29.535 33.5673 29.535 34.3764C29.535 35.1855 30.1909 35.8414 31 35.8414H33ZM39.465 34.5797C39.465 33.964 39.9641 33.4649 40.5798 33.4649C41.1955 33.4649 41.6946 33.964 41.6946 34.5797C41.6946 35.1954 41.1955 35.6945 40.5798 35.6945C39.9641 35.6945 39.465 35.1954 39.465 34.5797ZM40.5798 30.5349C38.3459 30.5349 36.535 32.3458 36.535 34.5797C36.535 36.8136 38.3459 38.6245 40.5798 38.6245C42.8137 38.6245 44.6246 36.8136 44.6246 34.5797C44.6246 32.3458 42.8137 30.5349 40.5798 30.5349Z" fill="#861BE3"/>
</svg>
