<svg width="64" height="64" viewBox="0 0 64 64" fill="none" xmlns="http://www.w3.org/2000/svg">
<path d="M32 56C45.2548 56 56 45.2548 56 32C56 18.7452 45.2548 8 32 8C18.7452 8 8 18.7452 8 32C8 45.2548 18.7452 56 32 56Z" stroke="#44EB99" stroke-width="2.93333" stroke-linecap="round" stroke-linejoin="round"/>
<path d="M27.9174 31.7333C27.9174 30.0381 29.2915 28.664 30.9867 28.664H41.8666C43.5618 28.664 44.936 30.0381 44.936 31.7333V41.8409L43.6966 41.0972C42.7645 40.538 41.698 40.2426 40.611 40.2426H30.9867C29.2916 40.2426 27.9174 38.8684 27.9174 37.1732V31.7333Z" stroke="#44EB99" stroke-width="2.928" stroke-linecap="round" stroke-linejoin="round"/>
<circle cx="33.1439" cy="34.264" r="1.01067" fill="#44EB99" stroke="#44EB99" stroke-width="0.906663"/>
<circle cx="36.3439" cy="34.264" r="1.01067" fill="#44EB99" stroke="#44EB99" stroke-width="0.906663"/>
<circle cx="39.5438" cy="34.264" r="1.01067" fill="#44EB99" stroke="#44EB99" stroke-width="0.906663"/>
<path fill-rule="evenodd" clip-rule="evenodd" d="M23.7333 22.128H34.6132C35.4998 22.128 36.2185 22.8467 36.2185 23.7333V28.8H39.1465V23.7333C39.1465 21.2296 37.1169 19.2 34.6132 19.2H23.7333C21.2296 19.2 19.2 21.2296 19.2 23.7333V33.0913V33.1063V33.6123V35.0789C19.2 35.6862 19.8499 36.072 20.383 35.7812L21.6706 35.0789L22.1147 34.8367L22.128 34.8295L23.1718 34.2601C23.8377 33.8969 24.5841 33.7066 25.3426 33.7066H28.7999V30.7786H25.3426C24.2285 30.7786 23.1303 31.028 22.128 31.5066V23.7333C22.128 22.8467 22.8467 22.128 23.7333 22.128Z" fill="#44EB99"/>
</svg>
