<svg width="194" height="323" viewBox="0 0 194 323" fill="none" xmlns="http://www.w3.org/2000/svg">
<path d="M169 2H170.5V0.5H169V2ZM169 146L177.66 131H160.34L169 146ZM167.5 2V132.5H170.5V2H167.5ZM0 3.5H84.5V0.5H0V3.5ZM84.5 3.5H169V0.5H84.5V3.5Z" fill="#861BE3"/>
<path d="M170 314V315.5H171.5V314H170ZM120 314L135 322.66V305.34L120 314ZM170 312.5C169.989 312.5 169.977 312.5 169.966 312.5C169.955 312.5 169.943 312.5 169.932 312.5C169.92 312.5 169.909 312.5 169.897 312.5C169.886 312.5 169.874 312.5 169.863 312.5C169.851 312.5 169.839 312.5 169.828 312.5C169.816 312.5 169.804 312.5 169.792 312.5C169.78 312.5 169.769 312.5 169.757 312.5C169.745 312.5 169.733 312.5 169.721 312.5C169.709 312.5 169.697 312.5 169.685 312.5C169.672 312.5 169.66 312.5 169.648 312.5C169.636 312.5 169.624 312.5 169.611 312.5C169.599 312.5 169.587 312.5 169.574 312.5C169.562 312.5 169.55 312.5 169.537 312.5C169.525 312.5 169.512 312.5 169.5 312.5C169.487 312.5 169.475 312.5 169.462 312.5C169.449 312.5 169.437 312.5 169.424 312.5C169.411 312.5 169.398 312.5 169.386 312.5C169.373 312.5 169.36 312.5 169.347 312.5C169.334 312.5 169.321 312.5 169.308 312.5C169.295 312.5 169.282 312.5 169.269 312.5C169.256 312.5 169.243 312.5 169.23 312.5C169.217 312.5 169.203 312.5 169.19 312.5C169.177 312.5 169.164 312.5 169.15 312.5C169.137 312.5 169.123 312.5 169.11 312.5C169.097 312.5 169.083 312.5 169.07 312.5C169.056 312.5 169.043 312.5 169.029 312.5C169.015 312.5 169.002 312.5 168.988 312.5C168.974 312.5 168.961 312.5 168.947 312.5C168.933 312.5 168.919 312.5 168.905 312.5C168.892 312.5 168.878 312.5 168.864 312.5C168.85 312.5 168.836 312.5 168.822 312.5C168.808 312.5 168.794 312.5 168.779 312.5C168.765 312.5 168.751 312.5 168.737 312.5C168.723 312.5 168.709 312.5 168.694 312.5C168.68 312.5 168.666 312.5 168.651 312.5C168.637 312.5 168.623 312.5 168.608 312.5C168.594 312.5 168.579 312.5 168.565 312.5C168.55 312.5 168.535 312.5 168.521 312.5C168.506 312.5 168.492 312.5 168.477 312.5C168.462 312.5 168.447 312.5 168.433 312.5C168.418 312.5 168.403 312.5 168.388 312.5C168.373 312.5 168.358 312.5 168.343 312.5C168.328 312.5 168.313 312.5 168.298 312.5C168.283 312.5 168.268 312.5 168.253 312.5C168.238 312.5 168.223 312.5 168.208 312.5C168.193 312.5 168.177 312.5 168.162 312.5C168.147 312.5 168.131 312.5 168.116 312.5C168.101 312.5 168.085 312.5 168.07 312.5C168.054 312.5 168.039 312.5 168.023 312.5C168.008 312.5 167.992 312.5 167.977 312.5C167.961 312.5 167.945 312.5 167.93 312.5C167.914 312.5 167.898 312.5 167.883 312.5C167.867 312.5 167.851 312.5 167.835 312.5C167.819 312.5 167.803 312.5 167.788 312.5C167.772 312.5 167.756 312.5 167.74 312.5C167.724 312.5 167.708 312.5 167.692 312.5C167.675 312.5 167.659 312.5 167.643 312.5C167.627 312.5 167.611 312.5 167.595 312.5C167.578 312.5 167.562 312.5 167.546 312.5C167.529 312.5 167.513 312.5 167.497 312.5C167.48 312.5 167.464 312.5 167.447 312.5C167.431 312.5 167.414 312.5 167.398 312.5C167.381 312.5 167.365 312.5 167.348 312.5C167.332 312.5 167.315 312.5 167.298 312.5C167.281 312.5 167.265 312.5 167.248 312.5C167.231 312.5 167.214 312.5 167.198 312.5C167.181 312.5 167.164 312.5 167.147 312.5C167.13 312.5 167.113 312.5 167.096 312.5C167.079 312.5 167.062 312.5 167.045 312.5C167.028 312.5 167.011 312.5 166.993 312.5C166.976 312.5 166.959 312.5 166.942 312.5C166.925 312.5 166.907 312.5 166.89 312.5C166.873 312.5 166.855 312.5 166.838 312.5C166.821 312.5 166.803 312.5 166.786 312.5C166.768 312.5 166.751 312.5 166.733 312.5C166.716 312.5 166.698 312.5 166.681 312.5C166.663 312.5 166.645 312.5 166.628 312.5C166.61 312.5 166.592 312.5 166.575 312.5C166.557 312.5 166.539 312.5 166.521 312.5C166.503 312.5 166.486 312.5 166.468 312.5C166.45 312.5 166.432 312.5 166.414 312.5C166.396 312.5 166.378 312.5 166.36 312.5C166.342 312.5 166.324 312.5 166.306 312.5C166.288 312.5 166.269 312.5 166.251 312.5C166.233 312.5 166.215 312.5 166.197 312.5C166.178 312.5 166.16 312.5 166.142 312.5C166.123 312.5 166.105 312.5 166.087 312.5C166.068 312.5 166.05 312.5 166.031 312.5C166.013 312.5 165.994 312.5 165.976 312.5C165.957 312.5 165.939 312.5 165.92 312.5C165.902 312.5 165.883 312.5 165.864 312.5C165.846 312.5 165.827 312.5 165.808 312.5C165.789 312.5 165.771 312.5 165.752 312.5C165.733 312.5 165.714 312.5 165.695 312.5C165.676 312.5 165.658 312.5 165.639 312.5C165.62 312.5 165.601 312.5 165.582 312.5C165.563 312.5 165.544 312.5 165.524 312.5C165.505 312.5 165.486 312.5 165.467 312.5C165.448 312.5 165.429 312.5 165.41 312.5C165.39 312.5 165.371 312.5 165.352 312.5C165.333 312.5 165.313 312.5 165.294 312.5C165.274 312.5 165.255 312.5 165.236 312.5C165.216 312.5 165.197 312.5 165.177 312.5C165.158 312.5 165.138 312.5 165.119 312.5C165.099 312.5 165.08 312.5 165.06 312.5C165.04 312.5 165.021 312.5 165.001 312.5C164.981 312.5 164.962 312.5 164.942 312.5C164.922 312.5 164.902 312.5 164.883 312.5C164.863 312.5 164.843 312.5 164.823 312.5C164.803 312.5 164.783 312.5 164.763 312.5C164.743 312.5 164.723 312.5 164.703 312.5C164.683 312.5 164.663 312.5 164.643 312.5C164.623 312.5 164.603 312.5 164.583 312.5C164.563 312.5 164.543 312.5 164.522 312.5C164.502 312.5 164.482 312.5 164.462 312.5C164.441 312.5 164.421 312.5 164.401 312.5C164.38 312.5 164.36 312.5 164.34 312.5C164.319 312.5 164.299 312.5 164.278 312.5C164.258 312.5 164.237 312.5 164.217 312.5C164.196 312.5 164.176 312.5 164.155 312.5C164.135 312.5 164.114 312.5 164.093 312.5C164.073 312.5 164.052 312.5 164.031 312.5C164.011 312.5 163.99 312.5 163.969 312.5C163.948 312.5 163.928 312.5 163.907 312.5C163.886 312.5 163.865 312.5 163.844 312.5C163.823 312.5 163.802 312.5 163.782 312.5C163.761 312.5 163.74 312.5 163.719 312.5C163.698 312.5 163.677 312.5 163.655 312.5C163.634 312.5 163.613 312.5 163.592 312.5C163.571 312.5 163.55 312.5 163.529 312.5C163.508 312.5 163.486 312.5 163.465 312.5C163.444 312.5 163.423 312.5 163.401 312.5C163.38 312.5 163.359 312.5 163.337 312.5C163.316 312.5 163.294 312.5 163.273 312.5C163.252 312.5 163.23 312.5 163.209 312.5C163.187 312.5 163.166 312.5 163.144 312.5C163.123 312.5 163.101 312.5 163.079 312.5C163.058 312.5 163.036 312.5 163.015 312.5C162.993 312.5 162.971 312.5 162.95 312.5C162.928 312.5 162.906 312.5 162.884 312.5C162.863 312.5 162.841 312.5 162.819 312.5C162.797 312.5 162.775 312.5 162.753 312.5C162.732 312.5 162.71 312.5 162.688 312.5C162.666 312.5 162.644 312.5 162.622 312.5C162.6 312.5 162.578 312.5 162.556 312.5C162.534 312.5 162.512 312.5 162.489 312.5C162.467 312.5 162.445 312.5 162.423 312.5C162.401 312.5 162.379 312.5 162.357 312.5C162.334 312.5 162.312 312.5 162.29 312.5C162.268 312.5 162.245 312.5 162.223 312.5C162.201 312.5 162.178 312.5 162.156 312.5C162.133 312.5 162.111 312.5 162.089 312.5C162.066 312.5 162.044 312.5 162.021 312.5C161.999 312.5 161.976 312.5 161.954 312.5C161.931 312.5 161.909 312.5 161.886 312.5C161.863 312.5 161.841 312.5 161.818 312.5C161.796 312.5 161.773 312.5 161.75 312.5C161.728 312.5 161.705 312.5 161.682 312.5C161.659 312.5 161.637 312.5 161.614 312.5C161.591 312.5 161.568 312.5 161.545 312.5C161.522 312.5 161.5 312.5 161.477 312.5C161.454 312.5 161.431 312.5 161.408 312.5C161.385 312.5 161.362 312.5 161.339 312.5C161.316 312.5 161.293 312.5 161.27 312.5C161.247 312.5 161.224 312.5 161.201 312.5C161.177 312.5 161.154 312.5 161.131 312.5C161.108 312.5 161.085 312.5 161.062 312.5C161.038 312.5 161.015 312.5 160.992 312.5C160.969 312.5 160.945 312.5 160.922 312.5C160.899 312.5 160.875 312.5 160.852 312.5C160.829 312.5 160.805 312.5 160.782 312.5C160.759 312.5 160.735 312.5 160.712 312.5C160.688 312.5 160.665 312.5 160.641 312.5C160.618 312.5 160.594 312.5 160.571 312.5C160.547 312.5 160.524 312.5 160.5 312.5C160.476 312.5 160.453 312.5 160.429 312.5C160.405 312.5 160.382 312.5 160.358 312.5C160.334 312.5 160.311 312.5 160.287 312.5C160.263 312.5 160.239 312.5 160.216 312.5C160.192 312.5 160.168 312.5 160.144 312.5C160.12 312.5 160.097 312.5 160.073 312.5C160.049 312.5 160.025 312.5 160.001 312.5C159.977 312.5 159.953 312.5 159.929 312.5C159.905 312.5 159.881 312.5 159.857 312.5C159.833 312.5 159.809 312.5 159.785 312.5C159.761 312.5 159.737 312.5 159.713 312.5C159.689 312.5 159.665 312.5 159.64 312.5C159.616 312.5 159.592 312.5 159.568 312.5C159.544 312.5 159.52 312.5 159.495 312.5C159.471 312.5 159.447 312.5 159.423 312.5C159.398 312.5 159.374 312.5 159.35 312.5C159.325 312.5 159.301 312.5 159.277 312.5C159.252 312.5 159.228 312.5 159.203 312.5C159.179 312.5 159.155 312.5 159.13 312.5C159.106 312.5 159.081 312.5 159.057 312.5C159.032 312.5 159.008 312.5 158.983 312.5C158.959 312.5 158.934 312.5 158.909 312.5C158.885 312.5 158.86 312.5 158.836 312.5C158.811 312.5 158.786 312.5 158.762 312.5C158.737 312.5 158.712 312.5 158.688 312.5C158.663 312.5 158.638 312.5 158.613 312.5C158.589 312.5 158.564 312.5 158.539 312.5C158.514 312.5 158.49 312.5 158.465 312.5C158.44 312.5 158.415 312.5 158.39 312.5C158.365 312.5 158.34 312.5 158.315 312.5C158.291 312.5 158.266 312.5 158.241 312.5C158.216 312.5 158.191 312.5 158.166 312.5C158.141 312.5 158.116 312.5 158.091 312.5C158.066 312.5 158.041 312.5 158.016 312.5C157.991 312.5 157.965 312.5 157.94 312.5C157.915 312.5 157.89 312.5 157.865 312.5C157.84 312.5 157.815 312.5 157.79 312.5C157.764 312.5 157.739 312.5 157.714 312.5C157.689 312.5 157.663 312.5 157.638 312.5C157.613 312.5 157.588 312.5 157.562 312.5C157.537 312.5 157.512 312.5 157.486 312.5C157.461 312.5 157.436 312.5 157.41 312.5C157.385 312.5 157.36 312.5 157.334 312.5C157.309 312.5 157.283 312.5 157.258 312.5C157.233 312.5 157.207 312.5 157.182 312.5C157.156 312.5 157.131 312.5 157.105 312.5C157.08 312.5 157.054 312.5 157.028 312.5C157.003 312.5 156.977 312.5 156.952 312.5C156.926 312.5 156.901 312.5 156.875 312.5C156.849 312.5 156.824 312.5 156.798 312.5C156.772 312.5 156.747 312.5 156.721 312.5C156.695 312.5 156.67 312.5 156.644 312.5C156.618 312.5 156.592 312.5 156.567 312.5C156.541 312.5 156.515 312.5 156.489 312.5C156.464 312.5 156.438 312.5 156.412 312.5C156.386 312.5 156.36 312.5 156.334 312.5C156.309 312.5 156.283 312.5 156.257 312.5C156.231 312.5 156.205 312.5 156.179 312.5C156.153 312.5 156.127 312.5 156.101 312.5C156.075 312.5 156.049 312.5 156.023 312.5C155.997 312.5 155.971 312.5 155.945 312.5C155.919 312.5 155.893 312.5 155.867 312.5C155.841 312.5 155.815 312.5 155.789 312.5C155.763 312.5 155.737 312.5 155.711 312.5C155.685 312.5 155.658 312.5 155.632 312.5C155.606 312.5 155.58 312.5 155.554 312.5C155.528 312.5 155.501 312.5 155.475 312.5C155.449 312.5 155.423 312.5 155.397 312.5C155.37 312.5 155.344 312.5 155.318 312.5C155.292 312.5 155.265 312.5 155.239 312.5C155.213 312.5 155.186 312.5 155.16 312.5C155.134 312.5 155.107 312.5 155.081 312.5C155.055 312.5 155.028 312.5 155.002 312.5C154.976 312.5 154.949 312.5 154.923 312.5C154.896 312.5 154.87 312.5 154.843 312.5C154.817 312.5 154.791 312.5 154.764 312.5C154.738 312.5 154.711 312.5 154.685 312.5C154.658 312.5 154.632 312.5 154.605 312.5C154.579 312.5 154.552 312.5 154.526 312.5C154.499 312.5 154.472 312.5 154.446 312.5C154.419 312.5 154.393 312.5 154.366 312.5C154.339 312.5 154.313 312.5 154.286 312.5C154.26 312.5 154.233 312.5 154.206 312.5C154.18 312.5 154.153 312.5 154.126 312.5C154.1 312.5 154.073 312.5 154.046 312.5C154.019 312.5 153.993 312.5 153.966 312.5C153.939 312.5 153.913 312.5 153.886 312.5C153.859 312.5 153.832 312.5 153.805 312.5C153.779 312.5 153.752 312.5 153.725 312.5C153.698 312.5 153.671 312.5 153.645 312.5C153.618 312.5 153.591 312.5 153.564 312.5C153.537 312.5 153.51 312.5 153.483 312.5C153.457 312.5 153.43 312.5 153.403 312.5C153.376 312.5 153.349 312.5 153.322 312.5C153.295 312.5 153.268 312.5 153.241 312.5C153.214 312.5 153.187 312.5 153.16 312.5C153.133 312.5 153.106 312.5 153.079 312.5C153.052 312.5 153.025 312.5 152.998 312.5C152.971 312.5 152.944 312.5 152.917 312.5C152.89 312.5 152.863 312.5 152.836 312.5C152.809 312.5 152.782 312.5 152.755 312.5C152.728 312.5 152.701 312.5 152.674 312.5C152.647 312.5 152.619 312.5 152.592 312.5C152.565 312.5 152.538 312.5 152.511 312.5C152.484 312.5 152.457 312.5 152.429 312.5C152.402 312.5 152.375 312.5 152.348 312.5C152.321 312.5 152.293 312.5 152.266 312.5C152.239 312.5 152.212 312.5 152.185 312.5C152.157 312.5 152.13 312.5 152.103 312.5C152.076 312.5 152.048 312.5 152.021 312.5C151.994 312.5 151.967 312.5 151.939 312.5C151.912 312.5 151.885 312.5 151.857 312.5C151.83 312.5 151.803 312.5 151.775 312.5C151.748 312.5 151.721 312.5 151.693 312.5C151.666 312.5 151.639 312.5 151.611 312.5C151.584 312.5 151.557 312.5 151.529 312.5C151.502 312.5 151.475 312.5 151.447 312.5C151.42 312.5 151.392 312.5 151.365 312.5C151.338 312.5 151.31 312.5 151.283 312.5C151.255 312.5 151.228 312.5 151.2 312.5C151.173 312.5 151.145 312.5 151.118 312.5C151.091 312.5 151.063 312.5 151.036 312.5C151.008 312.5 150.981 312.5 150.953 312.5C150.926 312.5 150.898 312.5 150.871 312.5C150.843 312.5 150.816 312.5 150.788 312.5C150.761 312.5 150.733 312.5 150.706 312.5C150.678 312.5 150.65 312.5 150.623 312.5C150.595 312.5 150.568 312.5 150.54 312.5C150.513 312.5 150.485 312.5 150.458 312.5C150.43 312.5 150.402 312.5 150.375 312.5C150.347 312.5 150.32 312.5 150.292 312.5C150.264 312.5 150.237 312.5 150.209 312.5C150.181 312.5 150.154 312.5 150.126 312.5C150.099 312.5 150.071 312.5 150.043 312.5C150.016 312.5 149.988 312.5 149.96 312.5C149.933 312.5 149.905 312.5 149.877 312.5C149.85 312.5 149.822 312.5 149.794 312.5C149.767 312.5 149.739 312.5 149.711 312.5C149.683 312.5 149.656 312.5 149.628 312.5C149.6 312.5 149.573 312.5 149.545 312.5C149.517 312.5 149.489 312.5 149.462 312.5C149.434 312.5 149.406 312.5 149.379 312.5C149.351 312.5 149.323 312.5 149.295 312.5C149.268 312.5 149.24 312.5 149.212 312.5C149.184 312.5 149.156 312.5 149.129 312.5C149.101 312.5 149.073 312.5 149.045 312.5C149.018 312.5 148.99 312.5 148.962 312.5C148.934 312.5 148.906 312.5 148.879 312.5C148.851 312.5 148.823 312.5 148.795 312.5C148.767 312.5 148.74 312.5 148.712 312.5C148.684 312.5 148.656 312.5 148.628 312.5C148.6 312.5 148.573 312.5 148.545 312.5C148.517 312.5 148.489 312.5 148.461 312.5C148.433 312.5 148.406 312.5 148.378 312.5C148.35 312.5 148.322 312.5 148.294 312.5C148.266 312.5 148.238 312.5 148.211 312.5C148.183 312.5 148.155 312.5 148.127 312.5C148.099 312.5 148.071 312.5 148.043 312.5C148.015 312.5 147.988 312.5 147.96 312.5C147.932 312.5 147.904 312.5 147.876 312.5C147.848 312.5 147.82 312.5 147.792 312.5C147.764 312.5 147.736 312.5 147.709 312.5C147.681 312.5 147.653 312.5 147.625 312.5C147.597 312.5 147.569 312.5 147.541 312.5C147.513 312.5 147.485 312.5 147.457 312.5C147.429 312.5 147.401 312.5 147.374 312.5C147.346 312.5 147.318 312.5 147.29 312.5C147.262 312.5 147.234 312.5 147.206 312.5C147.178 312.5 147.15 312.5 147.122 312.5C147.094 312.5 147.066 312.5 147.038 312.5C147.01 312.5 146.982 312.5 146.955 312.5C146.927 312.5 146.899 312.5 146.871 312.5C146.843 312.5 146.815 312.5 146.787 312.5C146.759 312.5 146.731 312.5 146.703 312.5C146.675 312.5 146.647 312.5 146.619 312.5C146.591 312.5 146.563 312.5 146.535 312.5C146.507 312.5 146.479 312.5 146.451 312.5C146.423 312.5 146.395 312.5 146.367 312.5C146.34 312.5 146.312 312.5 146.284 312.5C146.256 312.5 146.228 312.5 146.2 312.5C146.172 312.5 146.144 312.5 146.116 312.5C146.088 312.5 146.06 312.5 146.032 312.5C146.004 312.5 145.976 312.5 145.948 312.5C145.92 312.5 145.892 312.5 145.864 312.5C145.836 312.5 145.808 312.5 145.78 312.5C145.752 312.5 145.724 312.5 145.696 312.5C145.668 312.5 145.64 312.5 145.612 312.5C145.585 312.5 145.557 312.5 145.529 312.5C145.501 312.5 145.473 312.5 145.445 312.5C145.417 312.5 145.389 312.5 145.361 312.5C145.333 312.5 145.305 312.5 145.277 312.5C145.249 312.5 145.221 312.5 145.193 312.5C145.165 312.5 145.137 312.5 145.109 312.5C145.081 312.5 145.053 312.5 145.025 312.5C144.997 312.5 144.969 312.5 144.942 312.5C144.914 312.5 144.886 312.5 144.858 312.5C144.83 312.5 144.802 312.5 144.774 312.5C144.746 312.5 144.718 312.5 144.69 312.5C144.662 312.5 144.634 312.5 144.606 312.5C144.578 312.5 144.55 312.5 144.522 312.5C144.495 312.5 144.467 312.5 144.439 312.5C144.411 312.5 144.383 312.5 144.355 312.5C144.327 312.5 144.299 312.5 144.271 312.5C144.243 312.5 144.215 312.5 144.187 312.5C144.16 312.5 144.132 312.5 144.104 312.5C144.076 312.5 144.048 312.5 144.02 312.5C143.992 312.5 143.964 312.5 143.936 312.5C143.908 312.5 143.881 312.5 143.853 312.5C143.825 312.5 143.797 312.5 143.769 312.5C143.741 312.5 143.713 312.5 143.685 312.5C143.658 312.5 143.63 312.5 143.602 312.5C143.574 312.5 143.546 312.5 143.518 312.5C143.49 312.5 143.463 312.5 143.435 312.5C143.407 312.5 143.379 312.5 143.351 312.5C143.323 312.5 143.295 312.5 143.268 312.5C143.24 312.5 143.212 312.5 143.184 312.5C143.156 312.5 143.129 312.5 143.101 312.5C143.073 312.5 143.045 312.5 143.017 312.5C142.989 312.5 142.962 312.5 142.934 312.5C142.906 312.5 142.878 312.5 142.85 312.5C142.823 312.5 142.795 312.5 142.767 312.5C142.739 312.5 142.712 312.5 142.684 312.5C142.656 312.5 142.628 312.5 142.601 312.5C142.573 312.5 142.545 312.5 142.517 312.5C142.49 312.5 142.462 312.5 142.434 312.5C142.406 312.5 142.379 312.5 142.351 312.5C142.323 312.5 142.295 312.5 142.268 312.5C142.24 312.5 142.212 312.5 142.185 312.5C142.157 312.5 142.129 312.5 142.101 312.5C142.074 312.5 142.046 312.5 142.018 312.5C141.991 312.5 141.963 312.5 141.935 312.5C141.908 312.5 141.88 312.5 141.852 312.5C141.825 312.5 141.797 312.5 141.769 312.5C141.742 312.5 141.714 312.5 141.687 312.5C141.659 312.5 141.631 312.5 141.604 312.5C141.576 312.5 141.548 312.5 141.521 312.5C141.493 312.5 141.466 312.5 141.438 312.5C141.41 312.5 141.383 312.5 141.355 312.5C141.328 312.5 141.3 312.5 141.273 312.5C141.245 312.5 141.217 312.5 141.19 312.5C141.162 312.5 141.135 312.5 141.107 312.5C141.08 312.5 141.052 312.5 141.025 312.5C140.997 312.5 140.97 312.5 140.942 312.5C140.915 312.5 140.887 312.5 140.86 312.5C140.832 312.5 140.805 312.5 140.777 312.5C140.75 312.5 140.722 312.5 140.695 312.5C140.668 312.5 140.64 312.5 140.613 312.5C140.585 312.5 140.558 312.5 140.53 312.5C140.503 312.5 140.476 312.5 140.448 312.5C140.421 312.5 140.393 312.5 140.366 312.5C140.339 312.5 140.311 312.5 140.284 312.5C140.256 312.5 140.229 312.5 140.202 312.5C140.174 312.5 140.147 312.5 140.12 312.5C140.092 312.5 140.065 312.5 140.038 312.5C140.01 312.5 139.983 312.5 139.956 312.5C139.929 312.5 139.901 312.5 139.874 312.5C139.847 312.5 139.819 312.5 139.792 312.5C139.765 312.5 139.738 312.5 139.71 312.5C139.683 312.5 139.656 312.5 139.629 312.5C139.602 312.5 139.574 312.5 139.547 312.5C139.52 312.5 139.493 312.5 139.466 312.5C139.438 312.5 139.411 312.5 139.384 312.5C139.357 312.5 139.33 312.5 139.303 312.5C139.276 312.5 139.248 312.5 139.221 312.5C139.194 312.5 139.167 312.5 139.14 312.5C139.113 312.5 139.086 312.5 139.059 312.5C139.032 312.5 139.005 312.5 138.978 312.5C138.95 312.5 138.923 312.5 138.896 312.5C138.869 312.5 138.842 312.5 138.815 312.5C138.788 312.5 138.761 312.5 138.734 312.5C138.707 312.5 138.68 312.5 138.653 312.5C138.626 312.5 138.6 312.5 138.573 312.5C138.546 312.5 138.519 312.5 138.492 312.5C138.465 312.5 138.438 312.5 138.411 312.5C138.384 312.5 138.357 312.5 138.33 312.5C138.304 312.5 138.277 312.5 138.25 312.5C138.223 312.5 138.196 312.5 138.169 312.5C138.143 312.5 138.116 312.5 138.089 312.5C138.062 312.5 138.035 312.5 138.009 312.5C137.982 312.5 137.955 312.5 137.928 312.5C137.902 312.5 137.875 312.5 137.848 312.5C137.821 312.5 137.795 312.5 137.768 312.5C137.741 312.5 137.715 312.5 137.688 312.5C137.661 312.5 137.635 312.5 137.608 312.5C137.581 312.5 137.555 312.5 137.528 312.5C137.501 312.5 137.475 312.5 137.448 312.5C137.422 312.5 137.395 312.5 137.369 312.5C137.342 312.5 137.315 312.5 137.289 312.5C137.262 312.5 137.236 312.5 137.209 312.5C137.183 312.5 137.156 312.5 137.13 312.5C137.103 312.5 137.077 312.5 137.05 312.5C137.024 312.5 136.998 312.5 136.971 312.5C136.945 312.5 136.918 312.5 136.892 312.5C136.866 312.5 136.839 312.5 136.813 312.5C136.786 312.5 136.76 312.5 136.734 312.5C136.707 312.5 136.681 312.5 136.655 312.5C136.628 312.5 136.602 312.5 136.576 312.5C136.55 312.5 136.523 312.5 136.497 312.5C136.471 312.5 136.445 312.5 136.418 312.5C136.392 312.5 136.366 312.5 136.34 312.5C136.314 312.5 136.287 312.5 136.261 312.5C136.235 312.5 136.209 312.5 136.183 312.5C136.157 312.5 136.131 312.5 136.104 312.5C136.078 312.5 136.052 312.5 136.026 312.5C136 312.5 135.974 312.5 135.948 312.5C135.922 312.5 135.896 312.5 135.87 312.5C135.844 312.5 135.818 312.5 135.792 312.5C135.766 312.5 135.74 312.5 135.714 312.5C135.688 312.5 135.662 312.5 135.636 312.5C135.61 312.5 135.585 312.5 135.559 312.5C135.533 312.5 135.507 312.5 135.481 312.5C135.455 312.5 135.429 312.5 135.404 312.5C135.378 312.5 135.352 312.5 135.326 312.5C135.301 312.5 135.275 312.5 135.249 312.5C135.223 312.5 135.198 312.5 135.172 312.5C135.146 312.5 135.12 312.5 135.095 312.5C135.069 312.5 135.043 312.5 135.018 312.5C134.992 312.5 134.967 312.5 134.941 312.5C134.915 312.5 134.89 312.5 134.864 312.5C134.839 312.5 134.813 312.5 134.788 312.5C134.762 312.5 134.737 312.5 134.711 312.5C134.686 312.5 134.66 312.5 134.635 312.5C134.609 312.5 134.584 312.5 134.558 312.5C134.533 312.5 134.507 312.5 134.482 312.5C134.457 312.5 134.431 312.5 134.406 312.5C134.381 312.5 134.355 312.5 134.33 312.5C134.305 312.5 134.279 312.5 134.254 312.5C134.229 312.5 134.204 312.5 134.178 312.5C134.153 312.5 134.128 312.5 134.103 312.5C134.077 312.5 134.052 312.5 134.027 312.5C134.002 312.5 133.977 312.5 133.952 312.5C133.927 312.5 133.901 312.5 133.876 312.5C133.851 312.5 133.826 312.5 133.801 312.5C133.776 312.5 133.751 312.5 133.726 312.5C133.701 312.5 133.676 312.5 133.651 312.5C133.626 312.5 133.601 312.5 133.576 312.5C133.551 312.5 133.526 312.5 133.502 312.5V315.5C133.526 315.5 133.551 315.5 133.576 315.5C133.601 315.5 133.626 315.5 133.651 315.5C133.676 315.5 133.701 315.5 133.726 315.5C133.751 315.5 133.776 315.5 133.801 315.5C133.826 315.5 133.851 315.5 133.876 315.5C133.901 315.5 133.927 315.5 133.952 315.5C133.977 315.5 134.002 315.5 134.027 315.5C134.052 315.5 134.077 315.5 134.103 315.5C134.128 315.5 134.153 315.5 134.178 315.5C134.204 315.5 134.229 315.5 134.254 315.5C134.279 315.5 134.305 315.5 134.33 315.5C134.355 315.5 134.381 315.5 134.406 315.5C134.431 315.5 134.457 315.5 134.482 315.5C134.507 315.5 134.533 315.5 134.558 315.5C134.584 315.5 134.609 315.5 134.635 315.5C134.66 315.5 134.686 315.5 134.711 315.5C134.737 315.5 134.762 315.5 134.788 315.5C134.813 315.5 134.839 315.5 134.864 315.5C134.89 315.5 134.915 315.5 134.941 315.5C134.967 315.5 134.992 315.5 135.018 315.5C135.043 315.5 135.069 315.5 135.095 315.5C135.12 315.5 135.146 315.5 135.172 315.5C135.198 315.5 135.223 315.5 135.249 315.5C135.275 315.5 135.301 315.5 135.326 315.5C135.352 315.5 135.378 315.5 135.404 315.5C135.429 315.5 135.455 315.5 135.481 315.5C135.507 315.5 135.533 315.5 135.559 315.5C135.585 315.5 135.61 315.5 135.636 315.5C135.662 315.5 135.688 315.5 135.714 315.5C135.74 315.5 135.766 315.5 135.792 315.5C135.818 315.5 135.844 315.5 135.87 315.5C135.896 315.5 135.922 315.5 135.948 315.5C135.974 315.5 136 315.5 136.026 315.5C136.052 315.5 136.078 315.5 136.104 315.5C136.131 315.5 136.157 315.5 136.183 315.5C136.209 315.5 136.235 315.5 136.261 315.5C136.287 315.5 136.314 315.5 136.34 315.5C136.366 315.5 136.392 315.5 136.418 315.5C136.445 315.5 136.471 315.5 136.497 315.5C136.523 315.5 136.55 315.5 136.576 315.5C136.602 315.5 136.628 315.5 136.655 315.5C136.681 315.5 136.707 315.5 136.734 315.5C136.76 315.5 136.786 315.5 136.813 315.5C136.839 315.5 136.866 315.5 136.892 315.5C136.918 315.5 136.945 315.5 136.971 315.5C136.998 315.5 137.024 315.5 137.05 315.5C137.077 315.5 137.103 315.5 137.13 315.5C137.156 315.5 137.183 315.5 137.209 315.5C137.236 315.5 137.262 315.5 137.289 315.5C137.315 315.5 137.342 315.5 137.369 315.5C137.395 315.5 137.422 315.5 137.448 315.5C137.475 315.5 137.501 315.5 137.528 315.5C137.555 315.5 137.581 315.5 137.608 315.5C137.635 315.5 137.661 315.5 137.688 315.5C137.715 315.5 137.741 315.5 137.768 315.5C137.795 315.5 137.821 315.5 137.848 315.5C137.875 315.5 137.902 315.5 137.928 315.5C137.955 315.5 137.982 315.5 138.009 315.5C138.035 315.5 138.062 315.5 138.089 315.5C138.116 315.5 138.143 315.5 138.169 315.5C138.196 315.5 138.223 315.5 138.25 315.5C138.277 315.5 138.304 315.5 138.33 315.5C138.357 315.5 138.384 315.5 138.411 315.5C138.438 315.5 138.465 315.5 138.492 315.5C138.519 315.5 138.546 315.5 138.573 315.5C138.6 315.5 138.626 315.5 138.653 315.5C138.68 315.5 138.707 315.5 138.734 315.5C138.761 315.5 138.788 315.5 138.815 315.5C138.842 315.5 138.869 315.5 138.896 315.5C138.923 315.5 138.95 315.5 138.978 315.5C139.005 315.5 139.032 315.5 139.059 315.5C139.086 315.5 139.113 315.5 139.14 315.5C139.167 315.5 139.194 315.5 139.221 315.5C139.248 315.5 139.276 315.5 139.303 315.5C139.33 315.5 139.357 315.5 139.384 315.5C139.411 315.5 139.438 315.5 139.466 315.5C139.493 315.5 139.52 315.5 139.547 315.5C139.574 315.5 139.602 315.5 139.629 315.5C139.656 315.5 139.683 315.5 139.71 315.5C139.738 315.5 139.765 315.5 139.792 315.5C139.819 315.5 139.847 315.5 139.874 315.5C139.901 315.5 139.929 315.5 139.956 315.5C139.983 315.5 140.01 315.5 140.038 315.5C140.065 315.5 140.092 315.5 140.12 315.5C140.147 315.5 140.174 315.5 140.202 315.5C140.229 315.5 140.256 315.5 140.284 315.5C140.311 315.5 140.339 315.5 140.366 315.5C140.393 315.5 140.421 315.5 140.448 315.5C140.476 315.5 140.503 315.5 140.53 315.5C140.558 315.5 140.585 315.5 140.613 315.5C140.64 315.5 140.668 315.5 140.695 315.5C140.722 315.5 140.75 315.5 140.777 315.5C140.805 315.5 140.832 315.5 140.86 315.5C140.887 315.5 140.915 315.5 140.942 315.5C140.97 315.5 140.997 315.5 141.025 315.5C141.052 315.5 141.08 315.5 141.107 315.5C141.135 315.5 141.162 315.5 141.19 315.5C141.217 315.5 141.245 315.5 141.273 315.5C141.3 315.5 141.328 315.5 141.355 315.5C141.383 315.5 141.41 315.5 141.438 315.5C141.466 315.5 141.493 315.5 141.521 315.5C141.548 315.5 141.576 315.5 141.604 315.5C141.631 315.5 141.659 315.5 141.687 315.5C141.714 315.5 141.742 315.5 141.769 315.5C141.797 315.5 141.825 315.5 141.852 315.5C141.88 315.5 141.908 315.5 141.935 315.5C141.963 315.5 141.991 315.5 142.018 315.5C142.046 315.5 142.074 315.5 142.101 315.5C142.129 315.5 142.157 315.5 142.185 315.5C142.212 315.5 142.24 315.5 142.268 315.5C142.295 315.5 142.323 315.5 142.351 315.5C142.379 315.5 142.406 315.5 142.434 315.5C142.462 315.5 142.49 315.5 142.517 315.5C142.545 315.5 142.573 315.5 142.601 315.5C142.628 315.5 142.656 315.5 142.684 315.5C142.712 315.5 142.739 315.5 142.767 315.5C142.795 315.5 142.823 315.5 142.85 315.5C142.878 315.5 142.906 315.5 142.934 315.5C142.962 315.5 142.989 315.5 143.017 315.5C143.045 315.5 143.073 315.5 143.101 315.5C143.129 315.5 143.156 315.5 143.184 315.5C143.212 315.5 143.24 315.5 143.268 315.5C143.295 315.5 143.323 315.5 143.351 315.5C143.379 315.5 143.407 315.5 143.435 315.5C143.463 315.5 143.49 315.5 143.518 315.5C143.546 315.5 143.574 315.5 143.602 315.5C143.63 315.5 143.658 315.5 143.685 315.5C143.713 315.5 143.741 315.5 143.769 315.5C143.797 315.5 143.825 315.5 143.853 315.5C143.881 315.5 143.908 315.5 143.936 315.5C143.964 315.5 143.992 315.5 144.02 315.5C144.048 315.5 144.076 315.5 144.104 315.5C144.132 315.5 144.16 315.5 144.187 315.5C144.215 315.5 144.243 315.5 144.271 315.5C144.299 315.5 144.327 315.5 144.355 315.5C144.383 315.5 144.411 315.5 144.439 315.5C144.467 315.5 144.495 315.5 144.522 315.5C144.55 315.5 144.578 315.5 144.606 315.5C144.634 315.5 144.662 315.5 144.69 315.5C144.718 315.5 144.746 315.5 144.774 315.5C144.802 315.5 144.83 315.5 144.858 315.5C144.886 315.5 144.914 315.5 144.942 315.5C144.969 315.5 144.997 315.5 145.025 315.5C145.053 315.5 145.081 315.5 145.109 315.5C145.137 315.5 145.165 315.5 145.193 315.5C145.221 315.5 145.249 315.5 145.277 315.5C145.305 315.5 145.333 315.5 145.361 315.5C145.389 315.5 145.417 315.5 145.445 315.5C145.473 315.5 145.501 315.5 145.529 315.5C145.557 315.5 145.585 315.5 145.612 315.5C145.64 315.5 145.668 315.5 145.696 315.5C145.724 315.5 145.752 315.5 145.78 315.5C145.808 315.5 145.836 315.5 145.864 315.5C145.892 315.5 145.92 315.5 145.948 315.5C145.976 315.5 146.004 315.5 146.032 315.5C146.06 315.5 146.088 315.5 146.116 315.5C146.144 315.5 146.172 315.5 146.2 315.5C146.228 315.5 146.256 315.5 146.284 315.5C146.312 315.5 146.34 315.5 146.367 315.5C146.395 315.5 146.423 315.5 146.451 315.5C146.479 315.5 146.507 315.5 146.535 315.5C146.563 315.5 146.591 315.5 146.619 315.5C146.647 315.5 146.675 315.5 146.703 315.5C146.731 315.5 146.759 315.5 146.787 315.5C146.815 315.5 146.843 315.5 146.871 315.5C146.899 315.5 146.927 315.5 146.955 315.5C146.982 315.5 147.01 315.5 147.038 315.5C147.066 315.5 147.094 315.5 147.122 315.5C147.15 315.5 147.178 315.5 147.206 315.5C147.234 315.5 147.262 315.5 147.29 315.5C147.318 315.5 147.346 315.5 147.374 315.5C147.401 315.5 147.429 315.5 147.457 315.5C147.485 315.5 147.513 315.5 147.541 315.5C147.569 315.5 147.597 315.5 147.625 315.5C147.653 315.5 147.681 315.5 147.709 315.5C147.736 315.5 147.764 315.5 147.792 315.5C147.82 315.5 147.848 315.5 147.876 315.5C147.904 315.5 147.932 315.5 147.96 315.5C147.988 315.5 148.015 315.5 148.043 315.5C148.071 315.5 148.099 315.5 148.127 315.5C148.155 315.5 148.183 315.5 148.211 315.5C148.238 315.5 148.266 315.5 148.294 315.5C148.322 315.5 148.35 315.5 148.378 315.5C148.406 315.5 148.433 315.5 148.461 315.5C148.489 315.5 148.517 315.5 148.545 315.5C148.573 315.5 148.6 315.5 148.628 315.5C148.656 315.5 148.684 315.5 148.712 315.5C148.74 315.5 148.767 315.5 148.795 315.5C148.823 315.5 148.851 315.5 148.879 315.5C148.906 315.5 148.934 315.5 148.962 315.5C148.99 315.5 149.018 315.5 149.045 315.5C149.073 315.5 149.101 315.5 149.129 315.5C149.156 315.5 149.184 315.5 149.212 315.5C149.24 315.5 149.268 315.5 149.295 315.5C149.323 315.5 149.351 315.5 149.379 315.5C149.406 315.5 149.434 315.5 149.462 315.5C149.489 315.5 149.517 315.5 149.545 315.5C149.573 315.5 149.6 315.5 149.628 315.5C149.656 315.5 149.683 315.5 149.711 315.5C149.739 315.5 149.767 315.5 149.794 315.5C149.822 315.5 149.85 315.5 149.877 315.5C149.905 315.5 149.933 315.5 149.96 315.5C149.988 315.5 150.016 315.5 150.043 315.5C150.071 315.5 150.099 315.5 150.126 315.5C150.154 315.5 150.181 315.5 150.209 315.5C150.237 315.5 150.264 315.5 150.292 315.5C150.32 315.5 150.347 315.5 150.375 315.5C150.402 315.5 150.43 315.5 150.458 315.5C150.485 315.5 150.513 315.5 150.54 315.5C150.568 315.5 150.595 315.5 150.623 315.5C150.65 315.5 150.678 315.5 150.706 315.5C150.733 315.5 150.761 315.5 150.788 315.5C150.816 315.5 150.843 315.5 150.871 315.5C150.898 315.5 150.926 315.5 150.953 315.5C150.981 315.5 151.008 315.5 151.036 315.5C151.063 315.5 151.091 315.5 151.118 315.5C151.145 315.5 151.173 315.5 151.2 315.5C151.228 315.5 151.255 315.5 151.283 315.5C151.31 315.5 151.338 315.5 151.365 315.5C151.392 315.5 151.42 315.5 151.447 315.5C151.475 315.5 151.502 315.5 151.529 315.5C151.557 315.5 151.584 315.5 151.611 315.5C151.639 315.5 151.666 315.5 151.693 315.5C151.721 315.5 151.748 315.5 151.775 315.5C151.803 315.5 151.83 315.5 151.857 315.5C151.885 315.5 151.912 315.5 151.939 315.5C151.967 315.5 151.994 315.5 152.021 315.5C152.048 315.5 152.076 315.5 152.103 315.5C152.13 315.5 152.157 315.5 152.185 315.5C152.212 315.5 152.239 315.5 152.266 315.5C152.293 315.5 152.321 315.5 152.348 315.5C152.375 315.5 152.402 315.5 152.429 315.5C152.457 315.5 152.484 315.5 152.511 315.5C152.538 315.5 152.565 315.5 152.592 315.5C152.619 315.5 152.647 315.5 152.674 315.5C152.701 315.5 152.728 315.5 152.755 315.5C152.782 315.5 152.809 315.5 152.836 315.5C152.863 315.5 152.89 315.5 152.917 315.5C152.944 315.5 152.971 315.5 152.998 315.5C153.025 315.5 153.052 315.5 153.079 315.5C153.106 315.5 153.133 315.5 153.16 315.5C153.187 315.5 153.214 315.5 153.241 315.5C153.268 315.5 153.295 315.5 153.322 315.5C153.349 315.5 153.376 315.5 153.403 315.5C153.43 315.5 153.457 315.5 153.483 315.5C153.51 315.5 153.537 315.5 153.564 315.5C153.591 315.5 153.618 315.5 153.645 315.5C153.671 315.5 153.698 315.5 153.725 315.5C153.752 315.5 153.779 315.5 153.805 315.5C153.832 315.5 153.859 315.5 153.886 315.5C153.913 315.5 153.939 315.5 153.966 315.5C153.993 315.5 154.019 315.5 154.046 315.5C154.073 315.5 154.1 315.5 154.126 315.5C154.153 315.5 154.18 315.5 154.206 315.5C154.233 315.5 154.26 315.5 154.286 315.5C154.313 315.5 154.339 315.5 154.366 315.5C154.393 315.5 154.419 315.5 154.446 315.5C154.472 315.5 154.499 315.5 154.526 315.5C154.552 315.5 154.579 315.5 154.605 315.5C154.632 315.5 154.658 315.5 154.685 315.5C154.711 315.5 154.738 315.5 154.764 315.5C154.791 315.5 154.817 315.5 154.843 315.5C154.87 315.5 154.896 315.5 154.923 315.5C154.949 315.5 154.976 315.5 155.002 315.5C155.028 315.5 155.055 315.5 155.081 315.5C155.107 315.5 155.134 315.5 155.16 315.5C155.186 315.5 155.213 315.5 155.239 315.5C155.265 315.5 155.292 315.5 155.318 315.5C155.344 315.5 155.37 315.5 155.397 315.5C155.423 315.5 155.449 315.5 155.475 315.5C155.501 315.5 155.528 315.5 155.554 315.5C155.58 315.5 155.606 315.5 155.632 315.5C155.658 315.5 155.685 315.5 155.711 315.5C155.737 315.5 155.763 315.5 155.789 315.5C155.815 315.5 155.841 315.5 155.867 315.5C155.893 315.5 155.919 315.5 155.945 315.5C155.971 315.5 155.997 315.5 156.023 315.5C156.049 315.5 156.075 315.5 156.101 315.5C156.127 315.5 156.153 315.5 156.179 315.5C156.205 315.5 156.231 315.5 156.257 315.5C156.283 315.5 156.309 315.5 156.334 315.5C156.36 315.5 156.386 315.5 156.412 315.5C156.438 315.5 156.464 315.5 156.489 315.5C156.515 315.5 156.541 315.5 156.567 315.5C156.592 315.5 156.618 315.5 156.644 315.5C156.67 315.5 156.695 315.5 156.721 315.5C156.747 315.5 156.772 315.5 156.798 315.5C156.824 315.5 156.849 315.5 156.875 315.5C156.901 315.5 156.926 315.5 156.952 315.5C156.977 315.5 157.003 315.5 157.028 315.5C157.054 315.5 157.08 315.5 157.105 315.5C157.131 315.5 157.156 315.5 157.182 315.5C157.207 315.5 157.233 315.5 157.258 315.5C157.283 315.5 157.309 315.5 157.334 315.5C157.36 315.5 157.385 315.5 157.41 315.5C157.436 315.5 157.461 315.5 157.486 315.5C157.512 315.5 157.537 315.5 157.562 315.5C157.588 315.5 157.613 315.5 157.638 315.5C157.663 315.5 157.689 315.5 157.714 315.5C157.739 315.5 157.764 315.5 157.79 315.5C157.815 315.5 157.84 315.5 157.865 315.5C157.89 315.5 157.915 315.5 157.94 315.5C157.965 315.5 157.991 315.5 158.016 315.5C158.041 315.5 158.066 315.5 158.091 315.5C158.116 315.5 158.141 315.5 158.166 315.5C158.191 315.5 158.216 315.5 158.241 315.5C158.266 315.5 158.291 315.5 158.315 315.5C158.34 315.5 158.365 315.5 158.39 315.5C158.415 315.5 158.44 315.5 158.465 315.5C158.49 315.5 158.514 315.5 158.539 315.5C158.564 315.5 158.589 315.5 158.613 315.5C158.638 315.5 158.663 315.5 158.688 315.5C158.712 315.5 158.737 315.5 158.762 315.5C158.786 315.5 158.811 315.5 158.836 315.5C158.86 315.5 158.885 315.5 158.909 315.5C158.934 315.5 158.959 315.5 158.983 315.5C159.008 315.5 159.032 315.5 159.057 315.5C159.081 315.5 159.106 315.5 159.13 315.5C159.155 315.5 159.179 315.5 159.203 315.5C159.228 315.5 159.252 315.5 159.277 315.5C159.301 315.5 159.325 315.5 159.35 315.5C159.374 315.5 159.398 315.5 159.423 315.5C159.447 315.5 159.471 315.5 159.495 315.5C159.52 315.5 159.544 315.5 159.568 315.5C159.592 315.5 159.616 315.5 159.64 315.5C159.665 315.5 159.689 315.5 159.713 315.5C159.737 315.5 159.761 315.5 159.785 315.5C159.809 315.5 159.833 315.5 159.857 315.5C159.881 315.5 159.905 315.5 159.929 315.5C159.953 315.5 159.977 315.5 160.001 315.5C160.025 315.5 160.049 315.5 160.073 315.5C160.097 315.5 160.12 315.5 160.144 315.5C160.168 315.5 160.192 315.5 160.216 315.5C160.239 315.5 160.263 315.5 160.287 315.5C160.311 315.5 160.334 315.5 160.358 315.5C160.382 315.5 160.405 315.5 160.429 315.5C160.453 315.5 160.476 315.5 160.5 315.5C160.524 315.5 160.547 315.5 160.571 315.5C160.594 315.5 160.618 315.5 160.641 315.5C160.665 315.5 160.688 315.5 160.712 315.5C160.735 315.5 160.759 315.5 160.782 315.5C160.805 315.5 160.829 315.5 160.852 315.5C160.875 315.5 160.899 315.5 160.922 315.5C160.945 315.5 160.969 315.5 160.992 315.5C161.015 315.5 161.038 315.5 161.062 315.5C161.085 315.5 161.108 315.5 161.131 315.5C161.154 315.5 161.177 315.5 161.201 315.5C161.224 315.5 161.247 315.5 161.27 315.5C161.293 315.5 161.316 315.5 161.339 315.5C161.362 315.5 161.385 315.5 161.408 315.5C161.431 315.5 161.454 315.5 161.477 315.5C161.5 315.5 161.522 315.5 161.545 315.5C161.568 315.5 161.591 315.5 161.614 315.5C161.637 315.5 161.659 315.5 161.682 315.5C161.705 315.5 161.728 315.5 161.75 315.5C161.773 315.5 161.796 315.5 161.818 315.5C161.841 315.5 161.863 315.5 161.886 315.5C161.909 315.5 161.931 315.5 161.954 315.5C161.976 315.5 161.999 315.5 162.021 315.5C162.044 315.5 162.066 315.5 162.089 315.5C162.111 315.5 162.133 315.5 162.156 315.5C162.178 315.5 162.201 315.5 162.223 315.5C162.245 315.5 162.268 315.5 162.29 315.5C162.312 315.5 162.334 315.5 162.357 315.5C162.379 315.5 162.401 315.5 162.423 315.5C162.445 315.5 162.467 315.5 162.489 315.5C162.512 315.5 162.534 315.5 162.556 315.5C162.578 315.5 162.6 315.5 162.622 315.5C162.644 315.5 162.666 315.5 162.688 315.5C162.71 315.5 162.732 315.5 162.753 315.5C162.775 315.5 162.797 315.5 162.819 315.5C162.841 315.5 162.863 315.5 162.884 315.5C162.906 315.5 162.928 315.5 162.95 315.5C162.971 315.5 162.993 315.5 163.015 315.5C163.036 315.5 163.058 315.5 163.079 315.5C163.101 315.5 163.123 315.5 163.144 315.5C163.166 315.5 163.187 315.5 163.209 315.5C163.23 315.5 163.252 315.5 163.273 315.5C163.294 315.5 163.316 315.5 163.337 315.5C163.359 315.5 163.38 315.5 163.401 315.5C163.423 315.5 163.444 315.5 163.465 315.5C163.486 315.5 163.508 315.5 163.529 315.5C163.55 315.5 163.571 315.5 163.592 315.5C163.613 315.5 163.634 315.5 163.655 315.5C163.677 315.5 163.698 315.5 163.719 315.5C163.74 315.5 163.761 315.5 163.782 315.5C163.802 315.5 163.823 315.5 163.844 315.5C163.865 315.5 163.886 315.5 163.907 315.5C163.928 315.5 163.948 315.5 163.969 315.5C163.99 315.5 164.011 315.5 164.031 315.5C164.052 315.5 164.073 315.5 164.093 315.5C164.114 315.5 164.135 315.5 164.155 315.5C164.176 315.5 164.196 315.5 164.217 315.5C164.237 315.5 164.258 315.5 164.278 315.5C164.299 315.5 164.319 315.5 164.34 315.5C164.36 315.5 164.38 315.5 164.401 315.5C164.421 315.5 164.441 315.5 164.462 315.5C164.482 315.5 164.502 315.5 164.522 315.5C164.543 315.5 164.563 315.5 164.583 315.5C164.603 315.5 164.623 315.5 164.643 315.5C164.663 315.5 164.683 315.5 164.703 315.5C164.723 315.5 164.743 315.5 164.763 315.5C164.783 315.5 164.803 315.5 164.823 315.5C164.843 315.5 164.863 315.5 164.883 315.5C164.902 315.5 164.922 315.5 164.942 315.5C164.962 315.5 164.981 315.5 165.001 315.5C165.021 315.5 165.04 315.5 165.06 315.5C165.08 315.5 165.099 315.5 165.119 315.5C165.138 315.5 165.158 315.5 165.177 315.5C165.197 315.5 165.216 315.5 165.236 315.5C165.255 315.5 165.274 315.5 165.294 315.5C165.313 315.5 165.333 315.5 165.352 315.5C165.371 315.5 165.39 315.5 165.41 315.5C165.429 315.5 165.448 315.5 165.467 315.5C165.486 315.5 165.505 315.5 165.524 315.5C165.544 315.5 165.563 315.5 165.582 315.5C165.601 315.5 165.62 315.5 165.639 315.5C165.658 315.5 165.676 315.5 165.695 315.5C165.714 315.5 165.733 315.5 165.752 315.5C165.771 315.5 165.789 315.5 165.808 315.5C165.827 315.5 165.846 315.5 165.864 315.5C165.883 315.5 165.902 315.5 165.92 315.5C165.939 315.5 165.957 315.5 165.976 315.5C165.994 315.5 166.013 315.5 166.031 315.5C166.05 315.5 166.068 315.5 166.087 315.5C166.105 315.5 166.123 315.5 166.142 315.5C166.16 315.5 166.178 315.5 166.197 315.5C166.215 315.5 166.233 315.5 166.251 315.5C166.269 315.5 166.288 315.5 166.306 315.5C166.324 315.5 166.342 315.5 166.36 315.5C166.378 315.5 166.396 315.5 166.414 315.5C166.432 315.5 166.45 315.5 166.468 315.5C166.486 315.5 166.503 315.5 166.521 315.5C166.539 315.5 166.557 315.5 166.575 315.5C166.592 315.5 166.61 315.5 166.628 315.5C166.645 315.5 166.663 315.5 166.681 315.5C166.698 315.5 166.716 315.5 166.733 315.5C166.751 315.5 166.768 315.5 166.786 315.5C166.803 315.5 166.821 315.5 166.838 315.5C166.855 315.5 166.873 315.5 166.89 315.5C166.907 315.5 166.925 315.5 166.942 315.5C166.959 315.5 166.976 315.5 166.993 315.5C167.011 315.5 167.028 315.5 167.045 315.5C167.062 315.5 167.079 315.5 167.096 315.5C167.113 315.5 167.13 315.5 167.147 315.5C167.164 315.5 167.181 315.5 167.198 315.5C167.214 315.5 167.231 315.5 167.248 315.5C167.265 315.5 167.281 315.5 167.298 315.5C167.315 315.5 167.332 315.5 167.348 315.5C167.365 315.5 167.381 315.5 167.398 315.5C167.414 315.5 167.431 315.5 167.447 315.5C167.464 315.5 167.48 315.5 167.497 315.5C167.513 315.5 167.529 315.5 167.546 315.5C167.562 315.5 167.578 315.5 167.595 315.5C167.611 315.5 167.627 315.5 167.643 315.5C167.659 315.5 167.675 315.5 167.692 315.5C167.708 315.5 167.724 315.5 167.74 315.5C167.756 315.5 167.772 315.5 167.788 315.5C167.803 315.5 167.819 315.5 167.835 315.5C167.851 315.5 167.867 315.5 167.883 315.5C167.898 315.5 167.914 315.5 167.93 315.5C167.945 315.5 167.961 315.5 167.977 315.5C167.992 315.5 168.008 315.5 168.023 315.5C168.039 315.5 168.054 315.5 168.07 315.5C168.085 315.5 168.101 315.5 168.116 315.5C168.131 315.5 168.147 315.5 168.162 315.5C168.177 315.5 168.193 315.5 168.208 315.5C168.223 315.5 168.238 315.5 168.253 315.5C168.268 315.5 168.283 315.5 168.298 315.5C168.313 315.5 168.328 315.5 168.343 315.5C168.358 315.5 168.373 315.5 168.388 315.5C168.403 315.5 168.418 315.5 168.433 315.5C168.447 315.5 168.462 315.5 168.477 315.5C168.492 315.5 168.506 315.5 168.521 315.5C168.535 315.5 168.55 315.5 168.565 315.5C168.579 315.5 168.594 315.5 168.608 315.5C168.623 315.5 168.637 315.5 168.651 315.5C168.666 315.5 168.68 315.5 168.694 315.5C168.709 315.5 168.723 315.5 168.737 315.5C168.751 315.5 168.765 315.5 168.779 315.5C168.794 315.5 168.808 315.5 168.822 315.5C168.836 315.5 168.85 315.5 168.864 315.5C168.878 315.5 168.892 315.5 168.905 315.5C168.919 315.5 168.933 315.5 168.947 315.5C168.961 315.5 168.974 315.5 168.988 315.5C169.002 315.5 169.015 315.5 169.029 315.5C169.043 315.5 169.056 315.5 169.07 315.5C169.083 315.5 169.097 315.5 169.11 315.5C169.123 315.5 169.137 315.5 169.15 315.5C169.164 315.5 169.177 315.5 169.19 315.5C169.203 315.5 169.217 315.5 169.23 315.5C169.243 315.5 169.256 315.5 169.269 315.5C169.282 315.5 169.295 315.5 169.308 315.5C169.321 315.5 169.334 315.5 169.347 315.5C169.36 315.5 169.373 315.5 169.386 315.5C169.398 315.5 169.411 315.5 169.424 315.5C169.437 315.5 169.449 315.5 169.462 315.5C169.475 315.5 169.487 315.5 169.5 315.5C169.512 315.5 169.525 315.5 169.537 315.5C169.55 315.5 169.562 315.5 169.574 315.5C169.587 315.5 169.599 315.5 169.611 315.5C169.624 315.5 169.636 315.5 169.648 315.5C169.66 315.5 169.672 315.5 169.685 315.5C169.697 315.5 169.709 315.5 169.721 315.5C169.733 315.5 169.745 315.5 169.757 315.5C169.769 315.5 169.78 315.5 169.792 315.5C169.804 315.5 169.816 315.5 169.828 315.5C169.839 315.5 169.851 315.5 169.863 315.5C169.874 315.5 169.886 315.5 169.897 315.5C169.909 315.5 169.92 315.5 169.932 315.5C169.943 315.5 169.955 315.5 169.966 315.5C169.977 315.5 169.989 315.5 170 315.5V312.5ZM168.5 178V314H171.5V178H168.5Z" fill="#44EB99"/>
<path d="M168.891 146.74C169.562 146.292 170.438 146.292 171.109 146.74L191.504 160.336C192.691 161.128 192.691 162.872 191.504 163.664L171.109 177.26C170.438 177.708 169.562 177.708 168.891 177.26L148.496 163.664C147.309 162.872 147.309 161.128 148.496 160.336L168.891 146.74Z" stroke="#44EB99" stroke-width="3" stroke-linecap="round" stroke-linejoin="round"/>
</svg>
